# xmcd
#
# Track frame offsets:
#	150
#	38587
#	58175
#	82112
#	102187
#	126550
#	145912
#	166325
#	184987
#	204175
#	224350
#	247487
#	269000
#	291025
#
# Disc length: 4129 seconds
#
# Revision: 2
# Processed by: cddbd v1.5.2PL0 Copyright (c) Steve Scherf et al.
# Submitted via: EZCDAudioConverter 1.3.3.1
#
DISCID=e2101f0e
DTITLE=寶麗金 群星 - 鼓舞飛揚 95
DYEAR=1995
DGENRE=Pop
TTITLE0=鼓舞飛揚 95
TTITLE1=火舞豔場 -黎明
TTITLE2=我等到花兒也謝了
TTITLE3=你愛我什麼 - 黎瑞恩
TTITLE4=喜愛 - 譚詠麟
TTITLE5=今天的愛人是誰 - 陳慧爛
TTITLE6=紅葉落索的時候 - 周慧敏
TTITLE7=上帝之手 - 湯寶如
TTITLE8=瀟灑女人 - 王馨平
TTITLE9=同珍 ， 童真 - CD Voice
TTITLE10=告別戀曲 - 關淑怡
TTITLE11=我失戀 、 你悲傷  - 洪楗華
TTITLE12=全因身邊有你 - 鄭嘉穎
TTITLE13=嗲 噢! - 草蜢
EXTD=
EXTT0=
EXTT1=
EXTT2=
EXTT3=
EXTT4=
EXTT5=
EXTT6=
EXTT7=
EXTT8=
EXTT9=
EXTT10=
EXTT11=
EXTT12=
EXTT13=
PLAYORDER=
